<?xml version="1.0" encoding="utf-8"?>
<!-- Generator: Adobe Illustrator 26.5.0, SVG Export Plug-In . SVG Version: 6.00 Build 0)  -->
<svg version="1.1" id="a" xmlns="http://www.w3.org/2000/svg" xmlns:xlink="http://www.w3.org/1999/xlink" x="0px" y="0px"
	 viewBox="0 0 60 60" style="enable-background:new 0 0 60 60;" xml:space="preserve">
<style type="text/css">
	.st0{fill:#9F1239;}
</style>
<circle class="st0" cx="30" cy="30" r="30"/>
<g>
	<path d="M38.3,14.1c-2.4,0-4.4,1.3-5.5,3.2c-1.1-2-3.1-3.2-5.5-3.2c-3.5,0-6.3,2.8-6.3,6.3s2.8,6.3,6.3,6.3c2.4,0,4.4-1.3,5.5-3.2
		c1.1,2,3.1,3.2,5.5,3.2c3.5,0,6.3-2.8,6.3-6.3S41.7,14.1,38.3,14.1 M27.3,22.7c-1.3,0-2.4-1-2.4-2.4c0-1.3,1-2.4,2.4-2.4
		s2.4,1,2.4,2.4C29.6,21.7,28.6,22.7,27.3,22.7 M38.3,22.7c-1.3,0-2.4-1-2.4-2.4c0-1.3,1-2.4,2.4-2.4c1.3,0,2.4,1,2.4,2.4
		C40.6,21.7,39.6,22.7,38.3,22.7"/>
	<path d="M45.1,26.7H20.3c-1.2,0-2.2,1-2.2,2.2v0.5l-5.4-2.7v17.2l5.4-2.7v0.5c0,1.2,1,2.2,2.2,2.2h24.8c1.2,0,2.2-1,2.2-2.2V28.8
		C47.2,27.6,46.3,26.7,45.1,26.7"/>
</g>
</svg>
