<?xml version="1.0" encoding="UTF-8"?><svg id="a" xmlns="http://www.w3.org/2000/svg" viewBox="0 0 60 60"><circle cx="30" cy="30" r="30" style="fill: rgb(159 18 57);"/><g><path d="M39,12c-3,0-5.6,1.7-7,4.1-1.4-2.5-4-4.1-7-4.1-4.4,0-8,3.6-8,8s3.6,8,8,8c3,0,5.6-1.7,7-4.1,1.4,2.5,4,4.1,7,4.1,4.4,0,8-3.6,8-8s-3.6-8-8-8m-14,11c-1.7,0-3-1.3-3-3s1.3-3,3-3,3,1.3,3,3-1.3,3-3,3m14,0c-1.7,0-3-1.3-3-3s1.3-3,3-3,3,1.3,3,3-1.3,3-3,3" style="fill:#00000;"/><path d="M43,28H20c-1.1,0-2,.9-2,2v.5l-5-2.5v16l5-2.5v.5c0,1.1,.9,2,2,2h23c1.1,0,2-.9,2-2v-12c0-1.1-.9-2-2-2" style="fill:#00000;"/></g></svg>
